<svg width="1047" height="1022" viewBox="0 0 1047 1022" fill="none" xmlns="http://www.w3.org/2000/svg">
<path d="M525.16 0C814.24 0 1046.87 234.35 1046.87 523.43C1046.87 753.21 898.81 948.39 692.9 1018.81V1006.12C693.207 1003.19 693.363 1000.23 693.37 997.26V892.83C693.37 830.18 760.93 778.96 786.73 746.71C825.93 697.57 850.51 638.31 857.63 575.76C864.75 513.21 854.13 449.91 826.98 393.16C799.84 336.4 757.28 288.5 704.2 254.97C651.12 221.44 589.69 203.64 526.98 203.63C464.27 203.62 402.83 221.4 349.75 254.91C296.66 288.42 254.08 336.31 226.92 393.06C199.76 449.8 189.11 513.1 196.21 575.66C203.32 638.21 227.88 697.48 267.06 746.63C283.56 767.27 317.09 795.62 339.18 829.73L339.13 829.75C345.18 839.19 356.33 860.63 359.68 880.74C360.227 884.72 360.503 888.75 360.51 892.83V997.26C360.51 998.893 360.557 1000.52 360.65 1002.13V1021.04C151.27 952.59 0 755.68 0 523.43C0 234.35 236.08 0 525.16 0Z" fill="#085ED7"/>
<path d="M511.08 364.57C517.65 350.74 538.15 351.26 544.25 365.3C559.51 400.39 582.95 449.17 601.27 464.34C620.2 480.02 670.9 505.34 705.08 521.59C718.28 527.87 718.51 546.9 705.43 553.42C668.83 571.66 613.4 599.96 601.27 609.87C589.1 619.82 561.4 676.18 543.91 713.52C537.69 726.77 518.67 727.08 512.14 713.98C493.51 676.65 464.53 619.86 455.73 609.87C446.87 599.82 388.96 570.9 351.25 552.69C338.17 546.37 338.06 527.58 351.06 521.12C387.82 502.87 444.04 474.28 455.73 464.34C466.98 454.78 493.37 401.83 511.08 364.57Z" fill="#085ED7"/>
</svg>
